<svg width="20" height="20" viewBox="0 0 20 20" fill="none" xmlns="http://www.w3.org/2000/svg">
<path d="M7.5 16.875H18.75" stroke="#555555" stroke-width="1.5" stroke-linecap="round" stroke-linejoin="round"/>
<path d="M1.875 8.10158V3.99221C1.875 3.89338 1.89842 3.79596 1.94337 3.70794C1.98831 3.61992 2.05349 3.54381 2.13354 3.48586C2.2136 3.42792 2.30626 3.38978 2.40392 3.37459C2.50157 3.35939 2.60144 3.36757 2.69532 3.39846L3.75 3.75002L5 6.09377L7.5 6.87502V3.99221C7.5 3.89338 7.52342 3.79596 7.56837 3.70794C7.61331 3.61992 7.67849 3.54381 7.75854 3.48586C7.8386 3.42792 7.93126 3.38978 8.02892 3.37459C8.12657 3.35939 8.22644 3.36757 8.32032 3.39846L9.375 3.75002L11.875 8.12502L15.6719 9.17971C16.1981 9.32518 16.662 9.63942 16.9923 10.0741C17.3225 10.5089 17.5009 11.04 17.5 11.586V14.375L3.70313 10.5078C3.17691 10.3624 2.71303 10.0481 2.38275 9.6134C2.05248 9.17868 1.87409 8.64753 1.875 8.10158V8.10158Z" stroke="#555555" stroke-width="1.5" stroke-linecap="round" stroke-linejoin="round"/>
</svg>
