<svg width="140" height="36" viewBox="0 0 140 36" fill="none" xmlns="http://www.w3.org/2000/svg">
<line x1="2" y1="18.0312" x2="138" y2="18.0312" stroke="#D0D0D0"/>
<circle cx="3.5" cy="18" r="3.5" fill="#D0D0D0"/>
<circle cx="136.5" cy="18" r="3.5" fill="#D0D0D0"/>
<circle cx="70" cy="18" r="18" fill="#EC441E"/>
<path d="M64.75 26.25H78.25" stroke="white" stroke-width="1.5" stroke-linecap="round" stroke-linejoin="round"/>
<path d="M60.5125 13.5H62.125L64 15.75H67L65.8281 12.2344C65.791 12.1217 65.7812 12.0019 65.7994 11.8847C65.8177 11.7675 65.8634 11.6563 65.933 11.5602C66.0025 11.4642 66.0938 11.386 66.1995 11.332C66.3051 11.2781 66.422 11.25 66.5406 11.25H68.125L72.25 15.75H77.5C78.2956 15.75 79.0587 16.0661 79.6213 16.6287C80.1839 17.1913 80.5 17.9544 80.5 18.75V21H63.9812C63.3369 20.999 62.71 20.7906 62.1934 20.4057C61.6767 20.0207 61.2977 19.4796 61.1125 18.8625L59.7906 14.4656C59.7569 14.3533 59.75 14.2347 59.7704 14.1193C59.7908 14.0039 59.838 13.8948 59.9082 13.8009C59.9784 13.707 60.0696 13.6309 60.1746 13.5786C60.2795 13.5264 60.3952 13.4994 60.5125 13.5V13.5Z" stroke="white" stroke-width="1.5" stroke-linecap="round" stroke-linejoin="round"/>
</svg>
